# xmcd
#
# Track frame offsets:
# 150
# 20360
# 36145
# 52860
# 73585
# 92635
# 105417
# 125602
# 143107
# 172005
# 191195
# 207125
# 226620
# 247477
# 264600
#
# Disc length: 3704 seconds
#
#
# Revision: 2
# Processed by: cddbd v1.5.1PL0 Copyright (c) Steve Scherf et al.
# Submitted via: FreeRIP 2.942 
#
DISCID=d20e760f
DTITLE=The Pigram Brothers - Saltwater Country
DYEAR=1900
DGENRE=
TTITLE0=Barefoot Kid
TTITLE1=Saltwater Country
TTITLE2=Going Back Home
TTITLE3=Ol' Man From the Bush
TTITLE4=Roadtrain
TTITLE5=Simple Song
TTITLE6=Kids of Yesterday
TTITLE7=Maysong
TTITLE8=Raindancing
TTITLE9=Bullfrog Hole
TTITLE10=Poinciana Sword Fight
TTITLE11=Liar Cry
TTITLE12=Roll On Home
TTITLE13=Nowhere Else But Here
TTITLE14=Dear Alistair
EXTD=
EXTT0=
EXTT1=
EXTT2=
EXTT3=
EXTT4=
EXTT5=
EXTT6=
EXTT7=
EXTT8=
EXTT9=
EXTT10=
EXTT11=
EXTT12=
EXTT13=
EXTT14=
PLAYORDER=
